<svg width="161" height="85" viewBox="0 0 161 85" fill="none" xmlns="http://www.w3.org/2000/svg">
<path d="M48.9196 4.55553L85.636 38.8458C87.7523 40.8223 87.7523 44.1777 85.636 46.1542L48.9196 80.4445C46.9983 82.2389 44.0155 82.2389 42.0942 80.4445L5.37783 46.1542C3.26149 44.1777 3.26149 40.8223 5.37783 38.8458L42.0942 4.55553C44.0155 2.76113 46.9983 2.76113 48.9196 4.55553Z" stroke="#26C1F2" stroke-width="2"/>
<path d="M53.112 43.224C51.4693 43.224 49.9973 42.9573 48.696 42.424C47.3947 41.8907 46.3493 41.1013 45.56 40.056C44.792 39.0107 44.3867 37.752 44.344 36.28H50.168C50.2533 37.112 50.5413 37.752 51.032 38.2C51.5227 38.6267 52.1627 38.84 52.952 38.84C53.7627 38.84 54.4027 38.6587 54.872 38.296C55.3413 37.912 55.576 37.3893 55.576 36.728C55.576 36.1733 55.384 35.7147 55 35.352C54.6373 34.9893 54.1787 34.6907 53.624 34.456C53.0907 34.2213 52.3227 33.9547 51.32 33.656C49.8693 33.208 48.6853 32.76 47.768 32.312C46.8507 31.864 46.0613 31.2027 45.4 30.328C44.7387 29.4533 44.408 28.312 44.408 26.904C44.408 24.8133 45.1653 23.1813 46.68 22.008C48.1947 20.8133 50.168 20.216 52.6 20.216C55.0747 20.216 57.0693 20.8133 58.584 22.008C60.0987 23.1813 60.9093 24.824 61.016 26.936H55.096C55.0533 26.2107 54.7867 25.6453 54.296 25.24C53.8053 24.8133 53.176 24.6 52.408 24.6C51.7467 24.6 51.2133 24.7813 50.808 25.144C50.4027 25.4853 50.2 25.9867 50.2 26.648C50.2 27.3733 50.5413 27.9387 51.224 28.344C51.9067 28.7493 52.9733 29.1867 54.424 29.656C55.8747 30.1467 57.048 30.616 57.944 31.064C58.8613 31.512 59.6507 32.1627 60.312 33.016C60.9733 33.8693 61.304 34.968 61.304 36.312C61.304 37.592 60.9733 38.7547 60.312 39.8C59.672 40.8453 58.7333 41.6773 57.496 42.296C56.2587 42.9147 54.7973 43.224 53.112 43.224ZM79.9355 39.032H71.5515L70.2075 43H64.4795L72.6075 20.536H78.9435L87.0715 43H81.2795L79.9355 39.032ZM78.5275 34.808L75.7435 26.584L72.9915 34.808H78.5275ZM106.985 20.536V24.92H101.033V43H95.5613V24.92H89.6093V20.536H106.985ZM132.673 31.48C133.974 31.7573 135.019 32.408 135.809 33.432C136.598 34.4347 136.993 35.5867 136.993 36.888C136.993 38.7653 136.331 40.2587 135.009 41.368C133.707 42.456 131.883 43 129.537 43H119.073V20.536H129.185C131.467 20.536 133.249 21.0587 134.529 22.104C135.83 23.1493 136.481 24.568 136.481 26.36C136.481 27.6827 136.129 28.7813 135.425 29.656C134.742 30.5307 133.825 31.1387 132.673 31.48ZM124.545 29.624H128.129C129.025 29.624 129.707 29.432 130.177 29.048C130.667 28.6427 130.913 28.056 130.913 27.288C130.913 26.52 130.667 25.9333 130.177 25.528C129.707 25.1227 129.025 24.92 128.129 24.92H124.545V29.624ZM128.577 38.584C129.494 38.584 130.198 38.3813 130.689 37.976C131.201 37.5493 131.457 36.9413 131.457 36.152C131.457 35.3627 131.19 34.744 130.657 34.296C130.145 33.848 129.43 33.624 128.513 33.624H124.545V38.584H128.577ZM160.711 20.536L152.935 35.576V43H147.463V35.576L139.687 20.536H145.895L150.247 29.944L154.567 20.536H160.711Z" fill="white"/>
<path d="M54.982 57.768H50.266L49.51 60H46.288L50.86 47.364H54.424L58.996 60H55.738L54.982 57.768ZM54.19 55.392L52.624 50.766L51.076 55.392H54.19ZM64.3835 57.48H69.8195V60H60.8915V57.66L66.2915 49.884H60.8915V47.364H69.8195V49.704L64.3835 57.48ZM75.6281 47.364V60H72.5501V47.364H75.6281ZM81.8547 57.48H87.2907V60H78.3627V57.66L83.7627 49.884H78.3627V47.364H87.2907V49.704L81.8547 57.48ZM96.4654 60L93.8374 55.23H93.0994V60H90.0214V47.364H95.1874C96.1834 47.364 97.0294 47.538 97.7254 47.886C98.4334 48.234 98.9614 48.714 99.3094 49.326C99.6574 49.926 99.8314 50.598 99.8314 51.342C99.8314 52.182 99.5914 52.932 99.1114 53.592C98.6434 54.252 97.9474 54.72 97.0234 54.996L99.9394 60H96.4654ZM93.0994 53.052H95.0074C95.5714 53.052 95.9914 52.914 96.2674 52.638C96.5554 52.362 96.6994 51.972 96.6994 51.468C96.6994 50.988 96.5554 50.61 96.2674 50.334C95.9914 50.058 95.5714 49.92 95.0074 49.92H93.0994V53.052ZM108.46 60.126C107.272 60.126 106.18 59.85 105.184 59.298C104.2 58.746 103.414 57.978 102.826 56.994C102.25 55.998 101.962 54.882 101.962 53.646C101.962 52.41 102.25 51.3 102.826 50.316C103.414 49.332 104.2 48.564 105.184 48.012C106.18 47.46 107.272 47.184 108.46 47.184C109.648 47.184 110.734 47.46 111.718 48.012C112.714 48.564 113.494 49.332 114.058 50.316C114.634 51.3 114.922 52.41 114.922 53.646C114.922 54.882 114.634 55.998 114.058 56.994C113.482 57.978 112.702 58.746 111.718 59.298C110.734 59.85 109.648 60.126 108.46 60.126ZM108.46 57.318C109.468 57.318 110.272 56.982 110.872 56.31C111.484 55.638 111.79 54.75 111.79 53.646C111.79 52.53 111.484 51.642 110.872 50.982C110.272 50.31 109.468 49.974 108.46 49.974C107.44 49.974 106.624 50.304 106.012 50.964C105.412 51.624 105.112 52.518 105.112 53.646C105.112 54.762 105.412 55.656 106.012 56.328C106.624 56.988 107.44 57.318 108.46 57.318ZM126.984 51.432C126.984 52.164 126.816 52.836 126.48 53.448C126.144 54.048 125.628 54.534 124.932 54.906C124.236 55.278 123.372 55.464 122.34 55.464H120.432V60H117.354V47.364H122.34C123.348 47.364 124.2 47.538 124.896 47.886C125.592 48.234 126.114 48.714 126.462 49.326C126.81 49.938 126.984 50.64 126.984 51.432ZM122.106 53.016C122.694 53.016 123.132 52.878 123.42 52.602C123.708 52.326 123.852 51.936 123.852 51.432C123.852 50.928 123.708 50.538 123.42 50.262C123.132 49.986 122.694 49.848 122.106 49.848H120.432V53.016H122.106ZM135.282 60.126C134.094 60.126 133.002 59.85 132.006 59.298C131.022 58.746 130.236 57.978 129.648 56.994C129.072 55.998 128.784 54.882 128.784 53.646C128.784 52.41 129.072 51.3 129.648 50.316C130.236 49.332 131.022 48.564 132.006 48.012C133.002 47.46 134.094 47.184 135.282 47.184C136.47 47.184 137.556 47.46 138.54 48.012C139.536 48.564 140.316 49.332 140.88 50.316C141.456 51.3 141.744 52.41 141.744 53.646C141.744 54.882 141.456 55.998 140.88 56.994C140.304 57.978 139.524 58.746 138.54 59.298C137.556 59.85 136.47 60.126 135.282 60.126ZM135.282 57.318C136.29 57.318 137.094 56.982 137.694 56.31C138.306 55.638 138.612 54.75 138.612 53.646C138.612 52.53 138.306 51.642 137.694 50.982C137.094 50.31 136.29 49.974 135.282 49.974C134.262 49.974 133.446 50.304 132.834 50.964C132.234 51.624 131.934 52.518 131.934 53.646C131.934 54.762 132.234 55.656 132.834 56.328C133.446 56.988 134.262 57.318 135.282 57.318ZM156.039 47.364L151.557 60H147.705L143.223 47.364H146.499L149.631 56.904L152.781 47.364H156.039Z" fill="white"/>
</svg>
