<svg width="142" height="83" viewBox="0 0 142 83" fill="none" xmlns="http://www.w3.org/2000/svg">
<path d="M37.2574 4.24264C39.6005 1.8995 43.3995 1.8995 45.7426 4.24264L78.7574 37.2574C81.1005 39.6005 81.1005 43.3995 78.7574 45.7426L45.7426 78.7574C43.3995 81.1005 39.6005 81.1005 37.2574 78.7574L4.24264 45.7426C1.8995 43.3995 1.8995 39.6005 4.24264 37.2574L37.2574 4.24264Z" fill="#65DAFF"/>
<path d="M34.112 45.224C32.4693 45.224 30.9973 44.9573 29.696 44.424C28.3947 43.8907 27.3493 43.1013 26.56 42.056C25.792 41.0107 25.3867 39.752 25.344 38.28H31.168C31.2533 39.112 31.5413 39.752 32.032 40.2C32.5227 40.6267 33.1627 40.84 33.952 40.84C34.7627 40.84 35.4027 40.6587 35.872 40.296C36.3413 39.912 36.576 39.3893 36.576 38.728C36.576 38.1733 36.384 37.7147 36 37.352C35.6373 36.9893 35.1787 36.6907 34.624 36.456C34.0907 36.2213 33.3227 35.9547 32.32 35.656C30.8693 35.208 29.6853 34.76 28.768 34.312C27.8507 33.864 27.0613 33.2027 26.4 32.328C25.7387 31.4533 25.408 30.312 25.408 28.904C25.408 26.8133 26.1653 25.1813 27.68 24.008C29.1947 22.8133 31.168 22.216 33.6 22.216C36.0747 22.216 38.0693 22.8133 39.584 24.008C41.0987 25.1813 41.9093 26.824 42.016 28.936H36.096C36.0533 28.2107 35.7867 27.6453 35.296 27.24C34.8053 26.8133 34.176 26.6 33.408 26.6C32.7467 26.6 32.2133 26.7813 31.808 27.144C31.4027 27.4853 31.2 27.9867 31.2 28.648C31.2 29.3733 31.5413 29.9387 32.224 30.344C32.9067 30.7493 33.9733 31.1867 35.424 31.656C36.8747 32.1467 38.048 32.616 38.944 33.064C39.8613 33.512 40.6507 34.1627 41.312 35.016C41.9733 35.8693 42.304 36.968 42.304 38.312C42.304 39.592 41.9733 40.7547 41.312 41.8C40.672 42.8453 39.7333 43.6773 38.496 44.296C37.2587 44.9147 35.7973 45.224 34.112 45.224ZM60.9355 41.032H52.5515L51.2075 45H45.4795L53.6075 22.536H59.9435L68.0715 45H62.2795L60.9355 41.032ZM59.5275 36.808L56.7435 28.584L53.9915 36.808H59.5275ZM87.9853 22.536V26.92H82.0333V45H76.5613V26.92H70.6093V22.536H87.9853ZM113.673 33.48C114.974 33.7573 116.019 34.408 116.809 35.432C117.598 36.4347 117.993 37.5867 117.993 38.888C117.993 40.7653 117.331 42.2587 116.009 43.368C114.707 44.456 112.883 45 110.537 45H100.073V22.536H110.185C112.467 22.536 114.249 23.0587 115.529 24.104C116.83 25.1493 117.481 26.568 117.481 28.36C117.481 29.6827 117.129 30.7813 116.425 31.656C115.742 32.5307 114.825 33.1387 113.673 33.48ZM105.545 31.624H109.129C110.025 31.624 110.707 31.432 111.177 31.048C111.667 30.6427 111.913 30.056 111.913 29.288C111.913 28.52 111.667 27.9333 111.177 27.528C110.707 27.1227 110.025 26.92 109.129 26.92H105.545V31.624ZM109.577 40.584C110.494 40.584 111.198 40.3813 111.689 39.976C112.201 39.5493 112.457 38.9413 112.457 38.152C112.457 37.3627 112.19 36.744 111.657 36.296C111.145 35.848 110.43 35.624 109.513 35.624H105.545V40.584H109.577ZM141.711 22.536L133.935 37.576V45H128.463V37.576L120.687 22.536H126.895L131.247 31.944L135.567 22.536H141.711Z" fill="#113C49"/>
<path d="M32.982 62.768H28.266L27.51 65H24.288L28.86 52.364H32.424L36.996 65H33.738L32.982 62.768ZM32.19 60.392L30.624 55.766L29.076 60.392H32.19ZM42.3835 62.48H47.8195V65H38.8915V62.66L44.2915 54.884H38.8915V52.364H47.8195V54.704L42.3835 62.48ZM53.6281 52.364V65H50.5501V52.364H53.6281ZM59.8547 62.48H65.2907V65H56.3627V62.66L61.7627 54.884H56.3627V52.364H65.2907V54.704L59.8547 62.48ZM74.4654 65L71.8374 60.23H71.0994V65H68.0214V52.364H73.1874C74.1834 52.364 75.0294 52.538 75.7254 52.886C76.4334 53.234 76.9614 53.714 77.3094 54.326C77.6574 54.926 77.8314 55.598 77.8314 56.342C77.8314 57.182 77.5914 57.932 77.1114 58.592C76.6434 59.252 75.9474 59.72 75.0234 59.996L77.9394 65H74.4654ZM71.0994 58.052H73.0074C73.5714 58.052 73.9914 57.914 74.2674 57.638C74.5554 57.362 74.6994 56.972 74.6994 56.468C74.6994 55.988 74.5554 55.61 74.2674 55.334C73.9914 55.058 73.5714 54.92 73.0074 54.92H71.0994V58.052ZM86.4596 65.126C85.2716 65.126 84.1796 64.85 83.1836 64.298C82.1996 63.746 81.4136 62.978 80.8256 61.994C80.2496 60.998 79.9616 59.882 79.9616 58.646C79.9616 57.41 80.2496 56.3 80.8256 55.316C81.4136 54.332 82.1996 53.564 83.1836 53.012C84.1796 52.46 85.2716 52.184 86.4596 52.184C87.6476 52.184 88.7336 52.46 89.7176 53.012C90.7136 53.564 91.4936 54.332 92.0576 55.316C92.6336 56.3 92.9216 57.41 92.9216 58.646C92.9216 59.882 92.6336 60.998 92.0576 61.994C91.4816 62.978 90.7016 63.746 89.7176 64.298C88.7336 64.85 87.6476 65.126 86.4596 65.126ZM86.4596 62.318C87.4676 62.318 88.2716 61.982 88.8716 61.31C89.4836 60.638 89.7896 59.75 89.7896 58.646C89.7896 57.53 89.4836 56.642 88.8716 55.982C88.2716 55.31 87.4676 54.974 86.4596 54.974C85.4396 54.974 84.6236 55.304 84.0116 55.964C83.4116 56.624 83.1116 57.518 83.1116 58.646C83.1116 59.762 83.4116 60.656 84.0116 61.328C84.6236 61.988 85.4396 62.318 86.4596 62.318ZM104.984 56.432C104.984 57.164 104.816 57.836 104.48 58.448C104.144 59.048 103.628 59.534 102.932 59.906C102.236 60.278 101.372 60.464 100.34 60.464H98.432V65H95.354V52.364H100.34C101.348 52.364 102.2 52.538 102.896 52.886C103.592 53.234 104.114 53.714 104.462 54.326C104.81 54.938 104.984 55.64 104.984 56.432ZM100.106 58.016C100.694 58.016 101.132 57.878 101.42 57.602C101.708 57.326 101.852 56.936 101.852 56.432C101.852 55.928 101.708 55.538 101.42 55.262C101.132 54.986 100.694 54.848 100.106 54.848H98.432V58.016H100.106ZM113.282 65.126C112.094 65.126 111.002 64.85 110.006 64.298C109.022 63.746 108.236 62.978 107.648 61.994C107.072 60.998 106.784 59.882 106.784 58.646C106.784 57.41 107.072 56.3 107.648 55.316C108.236 54.332 109.022 53.564 110.006 53.012C111.002 52.46 112.094 52.184 113.282 52.184C114.47 52.184 115.556 52.46 116.54 53.012C117.536 53.564 118.316 54.332 118.88 55.316C119.456 56.3 119.744 57.41 119.744 58.646C119.744 59.882 119.456 60.998 118.88 61.994C118.304 62.978 117.524 63.746 116.54 64.298C115.556 64.85 114.47 65.126 113.282 65.126ZM113.282 62.318C114.29 62.318 115.094 61.982 115.694 61.31C116.306 60.638 116.612 59.75 116.612 58.646C116.612 57.53 116.306 56.642 115.694 55.982C115.094 55.31 114.29 54.974 113.282 54.974C112.262 54.974 111.446 55.304 110.834 55.964C110.234 56.624 109.934 57.518 109.934 58.646C109.934 59.762 110.234 60.656 110.834 61.328C111.446 61.988 112.262 62.318 113.282 62.318ZM134.039 52.364L129.557 65H125.705L121.223 52.364H124.499L127.631 61.904L130.781 52.364H134.039Z" fill="#113C49"/>
</svg>
